<?xml version="1.0" encoding="UTF-8"?>
<svg width="122px" height="146px" viewBox="0 0 122 146" version="1.1" xmlns="http://www.w3.org/2000/svg" xmlns:xlink="http://www.w3.org/1999/xlink">
    <title>Group 6 Copy</title>
    <g id="Page-1" stroke="none" stroke-width="1" fill="none" fill-rule="evenodd">
        <g id="Create-combo-Images-1" transform="translate(-415.000000, -1152.000000)">
            <g id="Group" transform="translate(360.000000, 501.000000)">
                <g id="Group-8-Copy-2" transform="translate(24.000000, 520.000000)">
                    <g id="Group-11-Copy" transform="translate(24.000000, 124.000000)">
                        <g id="Group-6-Copy" transform="translate(8.000000, 8.000000)">
                            <path d="M3,0 L117,0 C118.656854,-3.04359188e-16 120,1.34314575 120,3 L120,141 C120,142.656854 118.656854,144 117,144 L3,144 C1.34314575,144 2.02906125e-16,142.656854 0,141 L0,3 C-2.02906125e-16,1.34314575 1.34314575,3.04359188e-16 3,0 Z" id="Rectangle-Copy-4" stroke="#979797" fill="#FFFFFF" stroke-dasharray="6,6"></path>
                            <text id="Add-another-image" opacity="0.508789062" font-family="NotoSansSC-Regular, Noto Sans SC" font-size="10" font-weight="normal" fill="#212A39">
                                <tspan x="30.705" y="110">Add another </tspan>
                                <tspan x="45.165" y="125">image</tspan>
                            </text>
                            <path d="M61.2,38 C61.6418278,38 62,38.3581722 62,38.8 L62,48 L71.2,48 C71.6418278,48 72,48.3581722 72,48.8 L72,51.2 C72,51.6418278 71.6418278,52 71.2,52 L62,52 L62,61.2 C62,61.6418278 61.6418278,62 61.2,62 L58.8,62 C58.3581722,62 58,61.6418278 58,61.2 L58,52 L48.8,52 C48.3581722,52 48,51.6418278 48,51.2 L48,48.8 C48,48.3581722 48.3581722,48 48.8,48 L58,48 L58,38.8 C58,38.3581722 58.3581722,38 58.8,38 L61.2,38 Z" id="Combined-Shape" fill="#D8D8D8"></path>
                        </g>
                    </g>
                </g>
            </g>
        </g>
    </g>
</svg>