<?xml version="1.0" encoding="UTF-8"?>
<svg width="24px" height="24px" viewBox="0 0 24 24" version="1.1" xmlns="http://www.w3.org/2000/svg" xmlns:xlink="http://www.w3.org/1999/xlink">
    <title>9DAA5FF2-F50B-4387-8B1F-0395971AC20C</title>
    <defs>
        <filter id="filter-1">
            <feColorMatrix in="SourceGraphic" type="matrix" values="0 0 0 0 0.929412 0 0 0 0 0.411765 0 0 0 0 0.372549 0 0 0 1.000000 0"></feColorMatrix>
        </filter>
    </defs>
    <g id="Page-1" stroke="none" stroke-width="1" fill="none" fill-rule="evenodd">
        <g id="Pop-up-Notification" transform="translate(-1048.000000, -136.000000)">
            <g id="Group-Copy-2" transform="translate(1016.000000, 104.000000)">
                <g id="Group-20" transform="translate(20.000000, 20.000000)">
                    <g id="Icons/Dash/Support" transform="translate(8.000000, 8.000000)" filter="url(#filter-1)">
                        <g id="question-mark_major_monotone" transform="translate(4.800000, 4.800000)" fill="#000000" fill-rule="nonzero">
                            <path d="M11.2,0 C5.02432,0 0,5.02432 0,11.2 C0,17.37568 5.02432,22.4 11.2,22.4 C17.37568,22.4 22.4,17.37568 22.4,11.2 C22.4,5.02432 17.37568,0 11.2,0 M11.2,20.16 C6.25968,20.16 2.24,16.14032 2.24,11.2 C2.24,6.25968 6.25968,2.24 11.2,2.24 C16.14032,2.24 20.16,6.25968 20.16,11.2 C20.16,16.14032 16.14032,20.16 11.2,20.16 M11.2,15.5679999 C10.7596487,15.5682001 10.3528541,15.8033095 10.1328517,16.184765 C9.91284933,16.5662204 9.9130628,17.0360696 10.1334117,17.417325 C10.3537606,17.7985803 10.7607687,18.0333201 11.20112,18.0331201 C11.8818441,18.0328107 12.4334293,17.4807241 12.4331201,16.8 C12.4328107,16.1192759 11.8807241,15.5676907 11.2,15.5679999 M11.2,4.48 C9.66,4.48 8.316,5.78032 8.16816,5.92816 C7.76490565,6.37014623 7.7797722,7.05089942 8.20193743,7.47485982 C8.62410266,7.89882022 9.30478663,7.91657525 9.74848,7.5152 C10.0744,7.19488 10.76096,6.72 11.2,6.72 C11.6844535,6.72060116 12.1137206,7.03230761 12.2642415,7.49278455 C12.4147625,7.95326149 12.2524841,8.45833262 11.86192,8.74496 C10.7296,9.57376 10.08,10.76992 10.08,12.02544 L10.08,12.32 C10.08,12.9385589 10.5814411,13.44 11.2,13.44 C11.8185589,13.44 12.32,12.9385589 12.32,12.32 L12.32,12.02544 C12.32,11.29408 12.86208,10.78784 13.18576,10.5504 C14.0477364,9.91598062 14.5576547,8.91027366 14.56,7.84 C14.56,5.98752 13.05248,4.48 11.2,4.48" id="Shape"></path>
                        </g>
                    </g>
                </g>
            </g>
        </g>
    </g>
</svg>