<?xml version="1.0" encoding="UTF-8"?>
<svg width="20px" height="20px" viewBox="0 0 20 20" version="1.1" xmlns="http://www.w3.org/2000/svg" xmlns:xlink="http://www.w3.org/1999/xlink">
    <title>Combined Shape</title>
    <g id="Symbols" stroke="none" stroke-width="1" fill="none" fill-rule="evenodd" fill-opacity="0.497077142">
        <g id="Icons/Tooltip" fill="#037CD8">
            <path d="M10,0 C15.5228475,0 20,4.4771525 20,10 C20,15.5228475 15.5228475,20 10,20 C4.4771525,20 0,15.5228475 0,10 C0,4.4771525 4.4771525,0 10,0 Z M11.4590625,8.2728125 L10.7715625,8.405625 C10.5319792,8.4525 10.1244271,8.50848958 9.54890625,8.57359375 C9.05560268,8.62939732 8.66274554,8.66893814 8.37033482,8.6922162 L8.2325,8.7025 L8.2325,9.124375 C8.591875,9.14 8.83927083,9.17385417 8.9746875,9.2259375 C9.11010417,9.27802083 9.1778125,9.41083333 9.1778125,9.624375 C9.1778125,9.66083333 9.17390625,9.69989583 9.16609375,9.7415625 L9.15339844,9.8040625 L9.15339844,9.8040625 L9.13875,9.8665625 L8.1778125,13.4603125 C8.10489583,13.7259375 8.05020833,13.9394792 8.01375,14.1009375 C7.95125,14.3821875 7.92,14.5879167 7.92,14.718125 C7.92,15.0879167 8.03588542,15.3626562 8.26765625,15.5423437 C8.49942708,15.7220312 8.76114583,15.811875 9.0528125,15.811875 C9.5684375,15.811875 10.0528125,15.593125 10.5059375,15.155625 C10.754375,14.9165625 11.1019531,14.475 11.5486719,13.8309375 L11.70125,13.60875 L11.3496875,13.3821875 C11.1673958,13.6842708 10.9564583,13.9733333 10.716875,14.249375 C10.4772917,14.5254167 10.2767708,14.6634375 10.1153125,14.6634375 C10.0528125,14.6634375 9.99552083,14.6465104 9.9434375,14.6126562 C9.89135417,14.5788021 9.8653125,14.5045833 9.8653125,14.39 C9.8653125,14.2754167 9.9121875,14.0254167 10.0059375,13.64 C10.0371875,13.5105357 10.0933099,13.2930612 10.1743048,12.9875765 L10.216875,12.8275 L11.4590625,8.2728125 Z M10.81625,5 C10.519375,5 10.2654687,5.10416667 10.0545312,5.3125 C9.84359375,5.52083333 9.738125,5.7734375 9.738125,6.0703125 C9.738125,6.3671875 9.84359375,6.62109375 10.0545312,6.83203125 C10.2654687,7.04296875 10.519375,7.1484375 10.81625,7.1484375 C11.113125,7.1484375 11.3657292,7.04296875 11.5740625,6.83203125 C11.7823958,6.62109375 11.8865625,6.3671875 11.8865625,6.0703125 C11.8865625,5.7734375 11.7823958,5.52083333 11.5740625,5.3125 C11.3657292,5.10416667 11.113125,5 10.81625,5 Z" id="Combined-Shape"></path>
        </g>
    </g>
</svg>