<?xml version="1.0" encoding="UTF-8"?>
<svg width="82px" height="96px" viewBox="0 0 82 96" version="1.1" xmlns="http://www.w3.org/2000/svg" xmlns:xlink="http://www.w3.org/1999/xlink">
    <title>B821C6AD-6549-4891-AD88-BF9589493060</title>
    <g id="Page-1" stroke="none" stroke-width="1" fill="none" fill-rule="evenodd">
        <g id="seller-login-2" transform="translate(-1219.000000, -692.000000)" fill-rule="nonzero">
            <g id="Group-2" transform="translate(720.000000, 640.000000)">
                <g id="shipping-order-status" transform="translate(499.000000, 52.000000)">
                    <polygon id="Path" fill="#D18D28" points="56 43 0 43 3.29411765 36 52.7058824 36"></polygon>
                    <polygon id="Path" fill="#EA9D2D" points="0 43 56 43 56 96 0 96"></polygon>
                    <polygon id="Path" fill="#D32B39" points="22 43 35 43 35 58 28.5 54.6666667 22 58"></polygon>
                    <polygon id="Path" fill="#CBCBCB" points="24 71 49 71 49 89 24 89"></polygon>
                    <g id="Group" transform="translate(30.000000, 76.000000)" fill="#A8A8A8">
                        <path d="M3.33333333,3.2 L1.66666667,3.2 C0.746192084,3.2 0,2.4836556 0,1.6 C0,0.7163444 0.746192084,0 1.66666667,0 L3.33333333,0 C4.25380792,0 5,0.7163444 5,1.6 C5,2.4836556 4.25380792,3.2 3.33333333,3.2 Z" id="Path"></path>
                        <path d="M13.3333333,3.2 L8.33333333,3.2 C7.41285875,3.2 6.66666667,2.4836556 6.66666667,1.6 C6.66666667,0.7163444 7.41285875,0 8.33333333,0 L13.3333333,0 C14.2538079,0 15,0.7163444 15,1.6 C15,2.4836556 14.2538079,3.2 13.3333333,3.2 Z" id="Path"></path>
                        <path d="M6.66666667,8 L1.66666667,8 C0.746192084,8 0,7.2836556 0,6.4 C0,5.5163444 0.746192084,4.8 1.66666667,4.8 L6.66666667,4.8 C7.58714125,4.8 8.33333333,5.5163444 8.33333333,6.4 C8.33333333,7.2836556 7.58714125,8 6.66666667,8 Z" id="Path"></path>
                        <path d="M13.3333333,8 L11.6666667,8 C10.7461921,8 10,7.2836556 10,6.4 C10,5.5163444 10.7461921,4.8 11.6666667,4.8 L13.3333333,4.8 C14.2538079,4.8 15,5.5163444 15,6.4 C15,7.2836556 14.2538079,8 13.3333333,8 Z" id="Path"></path>
                    </g>
                    <path d="M34.4,67 L21.6,67 C20.7163444,67 20,66.1045695 20,65 C20,63.8954305 20.7163444,63 21.6,63 L34.4,63 C35.2836556,63 36,63.8954305 36,65 C36,66.1045695 35.2836556,67 34.4,67 Z" id="Path" fill="#C38325"></path>
                    <polygon id="Path" fill="#0276B4" points="58 7 64 7 64 14 58 14"></polygon>
                    <polygon id="Path" fill="#0276B4" transform="translate(46.112869, 16.200978) rotate(-39.357957) translate(-46.112869, -16.200978) " points="42.8401069 12.0942389 49.4228183 12.0644883 49.3856301 20.307718 42.8029187 20.3374685"></polygon>
                    <polygon id="Path" fill="#0276B4" transform="translate(75.265714, 16.215780) rotate(-140.642043) translate(-75.265714, -16.215780) " points="71.9557637 12.0792901 78.5384751 12.1090406 78.5756633 20.3522703 71.9929519 20.3225198"></polygon>
                    <circle id="Oval" fill="#0296E5" cx="60.5" cy="34.5" r="21.5"></circle>
                    <ellipse id="Oval" fill="#EAEAE8" cx="60.5" cy="35" rx="14.5" ry="15"></ellipse>
                    <path d="M63,20.091667 L63,23.3333334 C63,24.253808 62.1045695,25 61,25 C59.8954305,25 59,24.253808 59,23.3333334 L59,20.091667 C60.3293,19.9694443 61.6707,19.9694443 63,20.091667 Z" id="Path" fill="#EAEAE8"></path>
                    <path d="M74,40.9703239 C73.5342624,42.0483738 72.9610951,43.0646564 72.2913108,44 L69.7794774,42.3230575 C69.2873826,41.9939443 68.990339,41.3974822 69.00024,40.7583528 C69.0101411,40.1192234 69.3254826,39.5345256 69.8274785,39.2245094 C70.3294744,38.9144932 70.9418596,38.9262574 71.4339544,39.2553707 L74,40.9703239 Z" id="Path" fill="#EAEAE8"></path>
                    <path d="M65.3983322,40 C65.0828894,40 64.7745442,39.9049061 64.5123416,39.7267961 L59.7123925,36.4767963 C59.2673923,36.1754519 59,35.6682071 59,35.1249995 L59,28.6249999 C59,27.7275372 59.7163368,27 60.599983,27 C61.4836293,27 62.1999661,27.7275372 62.1999661,28.6249999 L62.1999661,34.2554214 L66.2875228,37.0229994 C66.874351,37.4204125 67.1357268,38.161225 66.9309762,38.8467273 C66.7262257,39.5322297 66.1036538,40.0006977 65.3983322,40 L65.3983322,40 Z" id="Path" fill="#CBCBCB"></path>
                    <path d="M55.21875,0 L65.78125,0 C66.454347,0 67,0.587626266 67,1.3125 L67,7 L54,7 L54,1.3125 C54,0.587626266 54.545653,0 55.21875,0 Z" id="Path" fill="#0296E5"></path>
                    <path d="M63,20.091667 L63,23.3333334 C63,24.253808 62.1045695,25 61,25 C59.8954305,25 59,24.253808 59,23.3333334 L59,20.091667 C60.3293,19.9694443 61.6707,19.9694443 63,20.091667 Z" id="Path" fill="#CBCBCB"></path>
                    <path d="M74,40.9703239 C73.5342624,42.0483738 72.9610951,43.0646564 72.2913108,44 L69.7794774,42.3230575 C69.2873826,41.9939443 68.990339,41.3974822 69.00024,40.7583528 C69.0101411,40.1192234 69.3254826,39.5345256 69.8274785,39.2245094 C70.3294744,38.9144932 70.9418596,38.9262574 71.4339544,39.2553707 L74,40.9703239 Z" id="Path" fill="#CBCBCB"></path>
                    <polygon id="Path" fill="#961B20" points="35 43 22 43 23.625 36 33.375 36"></polygon>
                    <polygon id="Path" fill="#015078" points="58 6 64 6 64 10 58 10"></polygon>
                </g>
            </g>
        </g>
    </g>
</svg>