<?xml version="1.0" encoding="UTF-8"?>
<svg width="86px" height="88px" viewBox="0 0 86 88" version="1.1" xmlns="http://www.w3.org/2000/svg" xmlns:xlink="http://www.w3.org/1999/xlink">
    <title>0BF323DF-51C0-4744-AB47-E32734FF9A7E</title>
    <g id="Page-1" stroke="none" stroke-width="1" fill="none" fill-rule="evenodd">
        <g id="seller-login-1" transform="translate(-1218.000000, -696.000000)" fill-rule="nonzero">
            <g id="Group-2" transform="translate(720.000000, 640.000000)">
                <g id="shipping-Manage-inventory" transform="translate(498.000000, 56.000000)">
                    <polygon id="Path" fill="#0093B9" points="81 12.8421053 81 88 4 88 4 12.8421053 42.5 4"></polygon>
                    <polygon id="Path" fill="#E3E4E2" points="16 27 69 27 69 88 16 88"></polygon>
                    <polygon id="Path" fill="#0884A9" points="81 11.8705697 81 19 42.5 8.67497278 4 19 4 11.8705697 42.5 2"></polygon>
                    <rect id="Rectangle" fill="#57C3C1" transform="translate(43.000000, 19.000000) rotate(-180.000000) translate(-43.000000, -19.000000) " x="37" y="16" width="12" height="6" rx="3"></rect>
                    <polygon id="Path" fill="#E3E4E2" points="86 10.8181818 43 0 0 10.8181818 0 17 43 6.18181818 86 17"></polygon>
                    <polygon id="Path" fill="#C9C9C8" points="16 28 69 28 69 53 16 53"></polygon>
                    <g id="Group" transform="translate(16.000000, 30.000000)" fill="#B2B1B4">
                        <polygon id="Path" points="0 0 53 0 53 3.14285714 0 3.14285714"></polygon>
                        <polygon id="Path" points="0 6.28571429 53 6.28571429 53 9.42857143 0 9.42857143"></polygon>
                        <polygon id="Path" points="0 12.5714286 53 12.5714286 53 15.7142857 0 15.7142857"></polygon>
                        <polygon id="Path" points="0 18.8571429 53 18.8571429 53 22 0 22"></polygon>
                    </g>
                    <polygon id="Path" fill="#F8BC1E" points="53 88 53 64 26.5 64 26.5 40 0 40 0 88"></polygon>
                    <polygon id="Path" fill="#F9DA62" points="35 64 44 64 44 73 35 73"></polygon>
                    <path d="M52,66 L49.7941176,66 C48.5758425,66 47.5882353,66.9849736 47.5882353,68.2 L47.5882353,71.9225833 C47.5877278,78.3716328 42.3458885,83.5994938 35.8795956,83.6 L29.2058824,83.6 C27.9876072,83.6 27,84.5849736 27,85.8 L27,88 L52,88 L52,66 Z" id="Path" fill="#F5A922"></path>
                    <polygon id="Path" fill="#F79726" points="46 80 50 80 50 84 46 84"></polygon>
                    <polygon id="Path" fill="#F9DA62" points="8 64 17 64 17 73 8 73"></polygon>
                    <path d="M26,66 L23.7941176,66 C22.5758425,66 21.5882353,66.9849736 21.5882353,68.2 L21.5882353,71.9225833 C21.5877278,78.3716328 16.3458885,83.5994938 9.87959559,83.6 L3.20588235,83.6 C1.98760717,83.6 1,84.5849736 1,85.8 L1,88 L26,88 L26,66 Z" id="Path" fill="#F5A922"></path>
                    <polygon id="Path" fill="#F79726" points="19 80 23 80 23 84 19 84"></polygon>
                    <polygon id="Path" fill="#F9DA62" points="8 40 17 40 17 49 8 49"></polygon>
                    <path d="M26,42 L23.7941176,42 C22.5758425,42 21.5882353,42.9849736 21.5882353,44.2 L21.5882353,47.9225833 C21.5877278,54.3716328 16.3458885,59.5994938 9.87959559,59.6 L3.20588235,59.6 C1.98760717,59.6 1,60.5849736 1,61.8 L1,64 L26,64 L26,42 Z" id="Path" fill="#F5A922"></path>
                    <polygon id="Path" fill="#F79726" points="19 57 23 57 23 61 19 61"></polygon>
                </g>
            </g>
        </g>
    </g>
</svg>