<?xml version="1.0" encoding="UTF-8"?>
<svg width="90px" height="90px" viewBox="0 0 90 90" version="1.1" xmlns="http://www.w3.org/2000/svg" xmlns:xlink="http://www.w3.org/1999/xlink">
    <title>77227B48-70CF-4E96-A2B3-73B4C4854838</title>
    <g id="Page-1" stroke="none" stroke-width="1" fill="none" fill-rule="evenodd">
        <g id="seller-login-3" transform="translate(-1215.000000, -695.000000)" fill-rule="nonzero">
            <g id="Group-2" transform="translate(720.000000, 640.000000)">
                <g id="shipping-Dashboard" transform="translate(495.000000, 55.000000)">
                    <g id="Group" transform="translate(29.000000, 30.000000)" fill="#45D987">
                        <path d="M12.0272722,37.3246829 C11.3040858,37.3246829 10.7181006,37.8978293 10.7181006,38.6051707 L10.7181006,48.4113171 C10.7181006,49.1186585 11.3040858,49.6918049 12.0272722,49.6918049 C12.7504586,49.6918049 13.3364438,49.1186585 13.3364438,48.4113171 L13.3364438,38.6051707 C13.3364438,37.8978293 12.7504586,37.3246829 12.0272722,37.3246829 Z" id="Path"></path>
                        <path d="M1.43136095,37.3246829 C0.708174556,37.3246829 0.122189349,37.8978293 0.122189349,38.6051707 L0.122189349,48.4113171 C0.122189349,49.1186585 0.708174556,49.6918049 1.43136095,49.6918049 C2.15454734,49.6918049 2.74053254,49.1186585 2.74053254,48.4113171 L2.74053254,38.6051707 C2.74053254,37.8978293 2.15454734,37.3246829 1.43136095,37.3246829 Z" id="Path"></path>
                        <path d="M6.72949112,37.9406829 C6.00630473,37.9406829 5.42031953,38.5138293 5.42031953,39.2211707 L5.42031953,54.6143415 C5.42031953,55.3216829 6.00630473,55.8948293 6.72949112,55.8948293 C7.45267751,55.8948293 8.03866272,55.3216829 8.03866272,54.6143415 L8.03866272,39.2211707 C8.03866272,38.514 7.45250296,37.9406829 6.72949112,37.9406829 L6.72949112,37.9406829 Z" id="Path"></path>
                        <path d="M41.1860148,2.59102439 L51.2118254,2.59102439 C51.9350118,2.59102439 52.520997,2.01787805 52.520997,1.31053659 C52.520997,0.603195122 51.9350118,0.0300487805 51.2118254,0.0300487805 L41.1860148,0.0300487805 C40.4628284,0.0300487805 39.8768432,0.603195122 39.8768432,1.31053659 C39.8768432,2.01787805 40.4628284,2.59102439 41.1860148,2.59102439 Z" id="Path"></path>
                        <path d="M51.2116509,10.3938049 L41.1858402,10.3938049 C40.4626538,10.3938049 39.8766686,10.9669512 39.8766686,11.6742927 C39.8766686,12.3816341 40.4626538,12.9547805 41.1858402,12.9547805 L51.2116509,12.9547805 C51.9348373,12.9547805 52.5208225,12.3816341 52.5208225,11.6742927 C52.5208225,10.9669512 51.9348373,10.3938049 51.2116509,10.3938049 Z" id="Path"></path>
                        <path d="M57.639858,5.2117561 L41.5873195,5.2117561 C40.8641331,5.2117561 40.2781479,5.78490244 40.2781479,6.4922439 C40.2781479,7.19958537 40.8641331,7.77273171 41.5873195,7.77273171 L57.639858,7.77273171 C58.3630444,7.77273171 58.9490296,7.19958537 58.9490296,6.4922439 C58.9490296,5.78490244 58.3630444,5.2117561 57.639858,5.2117561 Z" id="Path"></path>
                    </g>
                    <path d="M81.8485852,89.6759028 L63.3242299,71.1514553 C62.8919234,70.7191466 62.8919234,70.0182118 63.3242299,69.5860822 L69.5860494,63.3242316 C70.018356,62.8919228 70.7192872,62.8919228 71.1514148,63.3242316 L89.6757701,81.848679 C90.1080766,82.2809877 90.1080766,82.9819225 89.6757701,83.4140521 L83.4139506,89.6759028 C82.981644,90.1080324 82.2808918,90.1080324 81.8485852,89.6759028 Z" id="Path" fill="#F78E36"></path>
                    <path d="M69.8608262,63.3198657 L66,67.1806919 C66.4264876,66.7542043 67.1179842,66.7542043 67.5442951,67.1806919 L85.8193081,85.4557049 C86.2457957,85.8821925 86.2457957,86.573689 85.8193081,87 L89.6801343,83.1391738 C90.1066219,82.7126862 90.1066219,82.0213663 89.6801343,81.5948787 L71.4051213,63.3198657 C70.9786337,62.8933781 70.2871371,62.8933781 69.8608262,63.3198657 Z" id="Path" fill="#F86F1B"></path>
                    <polygon id="Path" fill="#4380A0" transform="translate(62.689498, 62.702992) rotate(-45.000000) translate(-62.689498, -62.702992) " points="59.973648 56.7833976 65.4053472 56.7833976 65.4053472 68.622586 59.973648 68.622586"></polygon>
                    <polygon id="Path" fill="#7BE492" transform="translate(72.956000, 72.971419) rotate(-45.000000) translate(-72.956000, -72.971419) " points="67.524213 70.2555691 78.3877871 70.2555691 78.3877871 75.6872683 67.524213 75.6872683"></polygon>
                    <polygon id="Path" fill="#45D987" transform="translate(74.876586, 71.051296) rotate(-45.000000) translate(-74.876586, -71.051296) " points="72.1607364 68.3354465 77.5924356 68.3354465 77.5924356 73.7671457 72.1607364 73.7671457"></polygon>
                    <circle id="Oval" fill="#43809F" cx="35.5" cy="35.5" r="35.5"></circle>
                    <path d="M36.642906,0 C35.753728,0 34.8722462,0.0349899943 34,0.103556246 C51.7401196,1.49803122 65.714359,16.8126923 65.714359,35.5 C65.714359,54.1873077 51.7401196,69.5019688 34,70.8964438 C34.8722462,70.96501 35.7535569,71 36.642906,71 C55.6178526,71 71,55.1062369 71,35.5001767 C71,15.8941166 55.6178526,0 36.642906,0 Z" id="Path" fill="#3A7190"></path>
                    <circle id="Oval" fill="#F3F3F3" cx="35.5" cy="35.5" r="29.5"></circle>
                    <path d="M33.8333792,6 C32.8781015,6 31.9336418,6.04321391 31,6.12322038 C46.8623762,7.48280974 59.3332417,20.1377162 59.3332417,35.5 C59.3332417,50.8622838 46.8623762,63.5171903 31,64.8767796 C31.9336418,64.9567861 32.8781015,65 33.8333792,65 C51.018659,65 65,51.7663049 65,35.5 C65,19.2336951 51.0188424,6 33.8333792,6 Z" id="Path" fill="#E4E4E4"></path>
                    <g id="Group" transform="translate(19.000000, 11.000000)">
                        <path d="M11.3736364,23.9095111 L0.135272727,23.9095111 L0.135272727,7.79288889 C0.135272727,7.38826667 0.470727273,7.06026667 0.884545455,7.06026667 L10.6243636,7.06026667 C11.0381818,7.06026667 11.3736364,7.38826667 11.3736364,7.79288889 L11.3736364,23.9095111 Z" id="Path" fill="#29CEF6"></path>
                        <path d="M5.75454545,7.06026667 L5.75454545,23.9095111 L11.3736364,23.9095111 L11.3736364,7.79288889 C11.3736364,7.38826667 11.0381818,7.06026667 10.6243636,7.06026667 L5.75454545,7.06026667 Z" id="Path" fill="#22B5ED"></path>
                        <path d="M33.8503636,23.9095111 L22.612,23.9095111 L22.612,14.7523556 C22.612,14.3477333 22.9474545,14.0197333 23.3612727,14.0197333 L33.1010909,14.0197333 C33.5149091,14.0197333 33.8503636,14.3477333 33.8503636,14.7523556 L33.8503636,23.9095111 Z" id="Path" fill="#7BE492"></path>
                        <path d="M28.2312727,14.0197333 L28.2312727,23.9095111 L33.8503636,23.9095111 L33.8503636,14.7523556 C33.8503636,14.3477333 33.5149091,14.0197333 33.1010909,14.0197333 L28.2312727,14.0197333 Z" id="Path" fill="#45D987"></path>
                        <path d="M22.612,23.9095111 L11.3736364,23.9095111 L11.3736364,0.833422222 C11.3736364,0.4288 11.7090909,0.1008 12.1229091,0.1008 L21.8627273,0.1008 C22.2765455,0.1008 22.612,0.4288 22.612,0.833422222 L22.612,23.9095111 Z" id="Path" fill="#F78E36"></path>
                        <path d="M16.9929091,0.1008 L16.9929091,23.9095111 L22.612,23.9095111 L22.612,0.833422222 C22.612,0.4288 22.2765455,0.1008 21.8627273,0.1008 L16.9929091,0.1008 Z" id="Path" fill="#F86F1B"></path>
                    </g>
                    <path d="M54.668459,33 L15.331541,33 C14.5959978,33 14,33.8952 14,35 C14,36.1048 14.5959978,37 15.331541,37 L54.668459,37 C55.4040022,37 56,36.1048 56,35 C56,33.8952 55.4040022,33 54.668459,33 Z" id="Path" fill="#43809F"></path>
                    <path d="M51.63081,48.8657366 L44.9594558,48.8657366 L41.9314218,41.7954013 C41.7245,41.3121464 41.2085654,40.9958704 40.6436855,41 C40.0753356,41.0047115 39.5690804,41.3294948 39.3714729,41.8162529 L35.2076523,52.0717003 L32.287371,44.5114376 C32.1083919,44.0476997 31.6485252,43.7227495 31.1119532,43.6810465 C30.5746507,43.6378421 30.0621861,43.8882272 29.7995617,44.3176018 L27.0195416,48.8655697 L20.3697379,48.8655697 C19.6130947,48.8655697 19,49.4255583 19,50.1166613 C19,50.8077642 19.6130947,51.3677528 20.3697379,51.3677528 L27.8234864,51.3677528 C28.3198795,51.3677528 28.7775546,51.122372 29.0195416,50.7265267 L30.7127203,47.9562764 L33.8835723,56.1651049 C34.0753356,56.6620385 34.5874349,56.9956629 35.1643686,57 L35.1755091,57 C35.7476943,57 36.2603415,56.6747162 36.4595927,56.1837879 L40.6897087,45.7650313 L42.7485161,50.5723922 C42.9539768,51.0519773 43.4600493,51.3677528 44.0240161,51.3677528 L51.6302621,51.3677528 C52.3869053,51.3677528 53,50.8077642 53,50.1166613 C53,49.4255583 52.3874532,48.8657366 51.63081,48.8657366 L51.63081,48.8657366 Z" id="Path" fill="#29CEF6"></path>
                </g>
            </g>
        </g>
    </g>
</svg>