<?xml version="1.0" encoding="UTF-8"?>
<svg width="109px" height="27px" viewBox="0 0 109 27" version="1.1" xmlns="http://www.w3.org/2000/svg" xmlns:xlink="http://www.w3.org/1999/xlink">
    <title>92657D9E-1874-424D-AE4D-6A3F55A0A413</title>
    <g id="Seller-portal" stroke="none" stroke-width="1" fill="none" fill-rule="evenodd">
        <g id="Create-Product-Size-3" transform="translate(-85.000000, -26.000000)" fill="#212A39" fill-rule="nonzero" stroke="#212A39" stroke-width="1.2">
            <g id="Header">
                <g id="NUTAAN-2-Copy" transform="translate(86.000000, 28.000000)">
                    <path d="M17.0292774,23 L17.0292774,1.38554217 L14.1096147,1.38554217 L14.1096147,15.5444636 L0,0 L0,21.7596099 L2.91966272,21.7596099 L2.91966272,7.49512335 L17.0292774,23 Z M28.820705,22.1290878 C30.9008081,22.1290878 32.6551118,21.3549436 34.0836163,19.8066552 C35.3533981,18.4167145 35.988289,16.6484988 35.988289,14.502008 L35.988289,14.502008 L35.988289,1.38554217 L33.0686263,1.38554217 L33.0686263,13.6574871 C33.0686263,15.4344999 32.7971269,16.714477 32.2541281,17.4974182 C31.4438068,18.6674316 30.2993325,19.2524383 28.820705,19.2524383 C27.3504314,19.2524383 26.2101339,18.6674316 25.3998126,17.4974182 C24.8568138,16.6880857 24.5853144,15.4081086 24.5853144,13.6574871 L24.5853144,13.6574871 L24.5853144,1.38554217 L21.6656517,1.38554217 L21.6656517,14.502008 C21.6656517,16.6484988 22.3005426,18.4167145 23.5703244,19.8066552 C24.9904751,21.3549436 26.7406019,22.1290878 28.820705,22.1290878 Z M45.9627591,21.7596099 L45.9627591,4.27538726 L50.3986415,4.27538726 L50.3986415,1.38554217 L38.5946832,1.38554217 L38.5946832,4.27538726 L43.0430964,4.27538726 L43.0430964,21.7596099 L45.9627591,21.7596099 Z M52.8797283,21.7596099 L55.0350158,16.811245 L63.3178358,16.811245 L65.3478159,21.7596099 L68.5431549,21.7596099 L59.3079986,0.105565118 L49.7345122,21.7596099 L52.8797283,21.7596099 Z M62.1274154,13.9213999 L56.2504977,13.9213999 L59.2578756,6.99368904 L62.1274154,13.9213999 Z M71.8888629,21.7596099 L74.0441504,16.811245 L82.3269704,16.811245 L84.3569505,21.7596099 L87.5522895,21.7596099 L78.3171332,0.105565118 L68.7436468,21.7596099 L71.8888629,21.7596099 Z M81.1365499,13.9213999 L75.2596323,13.9213999 L78.2670102,6.99368904 L81.1365499,13.9213999 Z M107,23 L107,1.38554217 L104.080337,1.38554217 L104.080337,15.5444636 L89.9707226,0 L89.9707226,21.7596099 L92.8903853,21.7596099 L92.8903853,7.49512335 L107,23 Z" id="NUTAAN"></path>
                </g>
            </g>
        </g>
    </g>
</svg>