<?xml version="1.0" encoding="UTF-8"?>
<svg width="12px" height="12px" viewBox="0 0 12 12" version="1.1" xmlns="http://www.w3.org/2000/svg" xmlns:xlink="http://www.w3.org/1999/xlink">
    <title>A20224A8-90EB-4F80-9B8A-810D95B9C51D</title>
    <defs>
        <filter id="filter-1">
            <feColorMatrix in="SourceGraphic" type="matrix" values="0 0 0 0 0.000000 0 0 0 0 0.568627 0 0 0 0 1.000000 0 0 0 1.000000 0"></feColorMatrix>
        </filter>
    </defs>
    <g id="Seller-portal" stroke="none" stroke-width="1" fill="none" fill-rule="evenodd" opacity="0.74672154">
        <g id="Create-Product-Size-3" transform="translate(-1225.000000, -609.000000)">
            <g id="Group-9" transform="translate(384.000000, 581.000000)">
                <g filter="url(#filter-1)" id="Group-8">
                    <g transform="translate(837.000000, 24.000000)">
                        <g id="Icons/cancel-gray75" fill="#212A39">
                            <g id="Combined-Shape-2" transform="translate(4.458333, 4.458333)">
                                <path d="M1.34408287,0.174753844 L1.42258898,0.244077682 L5.54666667,4.36833333 L9.6721681,0.244077682 C9.99760501,-0.0813592274 10.5252425,-0.0813592274 10.8506794,0.244077682 C11.1510827,0.544480984 11.1741906,1.01717353 10.9200032,1.34408287 L10.8506794,1.42258898 L6.72583333,5.54666667 L10.8506794,9.6721681 C11.1761163,9.99760501 11.1761163,10.5252425 10.8506794,10.8506794 C10.5502761,11.1510827 10.0775836,11.1741906 9.75067421,10.9200032 L9.6721681,10.8506794 L5.54666667,6.72583333 L1.42258898,10.8506794 C1.09715207,11.1761163 0.569514592,11.1761163 0.244077682,10.8506794 C-0.056325619,10.5502761 -0.0794335653,10.0775836 0.174753844,9.75067421 L0.244077682,9.6721681 L4.36833333,5.54666667 L0.244077682,1.42258898 C-0.0813592274,1.09715207 -0.0813592274,0.569514592 0.244077682,0.244077682 C0.544480984,-0.056325619 1.01717353,-0.0794335653 1.34408287,0.174753844 Z" id="Combined-Shape" fill-rule="nonzero"></path>
                            </g>
                        </g>
                    </g>
                </g>
            </g>
        </g>
    </g>
</svg>