<?xml version="1.0" encoding="UTF-8"?>
<svg width="23px" height="23px" viewBox="0 0 23 23" version="1.1" xmlns="http://www.w3.org/2000/svg" xmlns:xlink="http://www.w3.org/1999/xlink">
    <title>784A6323-5828-4D3B-917C-F4C9A750622C</title>
    <defs>
        <filter id="filter-1">
            <feColorMatrix in="SourceGraphic" type="matrix" values="0 0 0 0 0.235294 0 0 0 0 0.819608 0 0 0 0 0.521569 0 0 0 1.000000 0"></feColorMatrix>
        </filter>
    </defs>
    <g id="Page-1" stroke="none" stroke-width="1" fill="none" fill-rule="evenodd">
        <g id="Pop-up-Notification" transform="translate(-1047.000000, -242.000000)">
            <g id="Group-Copy-11" transform="translate(1016.000000, 208.000000)">
                <g id="Icons/Dash/Support" transform="translate(28.000000, 28.000000)" filter="url(#filter-1)">
                    <g id="products_major_monotone" transform="translate(3.200000, 6.400000)" fill="#000000" fill-rule="nonzero">
                        <path d="M21.2800113,0 C21.898564,0 22.4,0.501415136 22.4,1.11994205 L22.4,11.1994205 C22.4,11.4962052 22.2824012,11.7817904 22.0718433,11.9912195 L11.9919447,22.070698 C11.7823554,22.2814814 11.4973685,22.4 11.2001126,22.4 C10.9028568,22.4 10.6178698,22.2814814 10.4082806,22.070698 L0.328381998,11.9912195 C0.118141791,11.7813453 0,11.4964802 0,11.1994205 C0,10.9023608 0.118141791,10.6174958 0.328381998,10.4076215 L10.4082806,0.328143021 C10.6177185,0.118713857 10.9033156,0 11.2001126,0 L21.2800113,0 Z M11.2001126,19.6953009 L12.9764148,17.9190728 L4.48018024,9.42319242 L2.70387811,11.1994205 L11.2001126,19.6953009 Z M20.1600225,10.7357645 L20.1600225,2.2398841 L11.663788,2.2398841 L6.06384431,7.83959436 L14.5600789,16.3354748 L20.1600225,10.7357645 Z M16.8000563,6.71965231 C16.1815036,6.71965231 15.6800676,6.21823717 15.6800676,5.59971026 C15.6800676,4.98118334 16.1815036,4.47976821 16.8000563,4.47976821 C17.418609,4.47976821 17.9200451,4.98118334 17.9200451,5.59971026 C17.9200451,6.21823717 17.418609,6.71965231 16.8000563,6.71965231 Z" id="Shape"></path>
                    </g>
                </g>
            </g>
        </g>
    </g>
</svg>